<?xml version="1.0" encoding="UTF-8"?>
<svg id="Camada_1" xmlns="http://www.w3.org/2000/svg" version="1.1" xmlns:xlink="http://www.w3.org/1999/xlink" viewBox="0 0 137 28">
  <!-- Generator: Adobe Illustrator 29.8.3, SVG Export Plug-In . SVG Version: 2.1.1 Build 3)  -->
  <defs>
    <style>
      .st0 {
        fill: #0b68f7;
      }

      .st1 {
        fill: none;
      }

      .st2 {
        clip-path: url(#clippath);
      }

      .st3 {
        fill: #fff;
        stroke: #fff;
        stroke-width: .3px;
      }
    </style>
    <clipPath id="clippath">
      <rect class="st1" width="27.79" height="27.79" rx="6" ry="6"/>
    </clipPath>
  </defs>
  <g class="st2">
    <g>
      <rect class="st0" width="27.79" height="27.79" rx="6" ry="6"/>
      <path class="st3" d="M13.67,6.35h0s0,0,0,0h0c.21,0,.41.07.58.2l.12.1c.11.11.18.25.23.4l2.88,10.24,1.42-3.77.06-.13c.07-.13.17-.24.29-.32l.13-.07c.13-.06.28-.1.42-.1h22.39c.26,0,.5.1.68.28l.06.07c.14.17.22.39.22.61,0,.22-.08.44-.22.61l-.06.07c-.18.18-.43.28-.68.28h-21.72l-2.22,5.91c-.05.14-.14.27-.25.37l-.12.09c-.13.08-.27.14-.42.15h-.15c-.15,0-.3-.04-.43-.12l-.13-.09c-.12-.09-.21-.22-.28-.35l-.05-.14-2.8-9.94-1.07,3.43c-.05.15-.13.28-.23.39l-.12.1c-.12.09-.27.15-.42.18h-.15s-20.8.01-20.8.01c-.22,0-.44-.08-.61-.22l-.07-.06c-.18-.18-.28-.43-.28-.68,0-.26.1-.5.28-.68l.07-.06c.17-.14.39-.22.61-.22H10.91l1.83-5.86.06-.14c.07-.14.17-.26.3-.35l.13-.08c.14-.07.29-.1.44-.1h0s0,0,0,0Z"/>
    </g>
  </g>
  <g>
    <path d="M48.72,13.95c-.09-1.69-.2-3.73-.19-5.23h-.05c-.42,1.41-.92,2.94-1.53,4.6l-2.14,5.89h-1.18l-1.98-5.78c-.58-1.71-1.05-3.27-1.39-4.71h-.04c-.04,1.51-.12,3.53-.24,5.35l-.32,5.21h-1.49l.84-12.14h2l2.07,5.87c.5,1.49.91,2.82,1.22,4.09h.05c.32-1.23.74-2.57,1.28-4.09l2.17-5.88h2l.75,12.14h-1.54l-.29-5.33Z"/>
    <path d="M53.9,15.22c.03,2.14,1.39,3.02,2.98,3.02,1.13,0,1.83-.2,2.41-.45l.28,1.12c-.55.25-1.52.55-2.91.55-2.68,0-4.28-1.78-4.28-4.39s1.55-4.7,4.1-4.7c2.84,0,3.58,2.49,3.58,4.1,0,.33-.02.57-.05.74h-6.11ZM58.53,14.08c.02-1-.41-2.56-2.18-2.56-1.62,0-2.3,1.46-2.43,2.56h4.62Z"/>
    <path d="M69.55,6.5v10.54c0,.77.03,1.65.07,2.25h-1.41l-.08-1.51h-.04c-.48.97-1.53,1.7-2.95,1.7-2.11,0-3.74-1.78-3.74-4.42-.01-2.91,1.79-4.68,3.91-4.68,1.34,0,2.24.63,2.63,1.32h.04v-5.2h1.57ZM67.97,14.12c0-.21-.02-.47-.07-.68-.25-1-1.1-1.82-2.29-1.82-1.64,0-2.62,1.44-2.62,3.35,0,1.77.88,3.24,2.59,3.24,1.06,0,2.02-.71,2.31-1.9.06-.21.08-.43.08-.68v-1.51Z"/>
    <path d="M84.53,18.89c-.57.28-1.73.58-3.21.58-3.42,0-5.98-2.16-5.98-6.15s2.57-6.37,6.33-6.37c1.5,0,2.47.32,2.88.53l-.39,1.28c-.59-.28-1.43-.5-2.44-.5-2.85,0-4.73,1.82-4.73,5.01,0,2.97,1.71,4.87,4.65,4.87.96,0,1.94-.19,2.57-.5l.31,1.25Z"/>
    <path d="M87.13,15.22c.03,2.14,1.39,3.02,2.98,3.02,1.13,0,1.83-.2,2.41-.45l.28,1.12c-.55.25-1.52.55-2.9.55-2.68,0-4.29-1.78-4.29-4.39s1.55-4.7,4.1-4.7c2.84,0,3.58,2.49,3.58,4.1,0,.33-.02.57-.05.74h-6.11ZM91.76,14.08c.02-1-.41-2.56-2.18-2.56-1.62,0-2.31,1.46-2.43,2.56h4.62Z"/>
    <path d="M95.26,12.93c0-.91-.03-1.63-.07-2.35h1.4l.09,1.43h.04c.43-.82,1.44-1.63,2.88-1.63,1.2,0,3.07.72,3.07,3.71v5.19h-1.57v-5.02c0-1.41-.53-2.59-2.01-2.59-1.04,0-1.85.74-2.13,1.63-.07.19-.11.47-.11.73v5.25h-1.58v-6.36Z"/>
    <path d="M107.08,8.07v2.51h2.28v1.2h-2.28v4.69c0,1.08.31,1.7,1.2,1.7.41,0,.71-.05.92-.11l.07,1.2c-.31.12-.8.22-1.41.22-.73,0-1.33-.24-1.71-.67-.44-.48-.62-1.25-.62-2.27v-4.75h-1.35v-1.2h1.35v-2.1l1.55-.41Z"/>
    <path d="M111.91,15.22c.03,2.14,1.39,3.02,2.98,3.02,1.13,0,1.83-.2,2.41-.45l.28,1.12c-.55.25-1.52.55-2.9.55-2.68,0-4.29-1.78-4.29-4.39s1.55-4.7,4.1-4.7c2.84,0,3.58,2.49,3.58,4.1,0,.33-.02.57-.05.74h-6.11ZM116.55,14.08c.02-1-.41-2.56-2.18-2.56-1.62,0-2.31,1.46-2.43,2.56h4.62Z"/>
    <path d="M120.04,13.29c0-1.03-.03-1.9-.07-2.71h1.39l.06,1.71h.06c.41-1.17,1.37-1.91,2.42-1.91.17,0,.3.01.44.04v1.49c-.16-.03-.32-.05-.54-.05-1.12,0-1.9.84-2.12,2.03-.04.22-.06.48-.06.74v4.65h-1.58v-6Z"/>
  </g>
</svg>